# File created by Blade
# Date/Time:  Fri Jan 16 17:18:57 2015
#---------------------------------------------------------
:version 1.10
:name HOM
:units
  mass 1.0
  length 1.000000
  angle deg
:documentation
     Acclaim Skeleton File
:root
   axis xyz
   order TX TY TZ RX RY RZ
   position 0.000000 0.000000 0.000000
   orientation 0 0 0
:bonedata
   begin
      id 1
      name Spine_dum
      direction 0.000000 1.000000 0.000000
      length 7.170412
      axis 0.0 0.0 0.0 xyz
   end
   begin
      id 2
      name LeftUpLeg_dum
      direction 1.000000 0.000000 0.000000
      length 4.318350
      axis 0.0 0.0 0.0 xyz
   end
   begin
      id 3
      name RightUpLeg_dum
      direction -1.000000 0.000000 0.000000
      length 4.318350
      axis 0.0 0.0 0.0 xyz
   end
   begin
      id 4
      name Spine
      direction 0.000000 1.000000 0.000000
      length 0.000000
      axis 0.0 0.0 0.0 xyz
      dof rx ry rz
   end
   begin
      id 5
      name Spine_dum1
      direction 0.000000 1.000000 0.000000
      length 14.276153
      axis 0.0 0.0 0.0 xyz
   end
   begin
      id 6
      name Spine_dum2
      direction 0.000000 1.000000 0.000000
      length 10.718243
      axis 0.0 0.0 0.0 xyz
   end
   begin
      id 7
      name Spine_dum3
      direction 0.000000 1.000000 0.000000
      length 10.718243
      axis 0.0 0.0 0.0 xyz
   end
   begin
      id 8
      name Head
      direction 0.000000 1.000000 0.000000
      length 4.527550
      axis 0.0 0.0 0.0 xyz
      dof rx ry rz
   end
   begin
      id 9
      name LeftShoulder
      direction 1.000000 0.000000 0.000000
      length 7.058872
      axis 0.0 0.0 -90.0 xyz
      dof rx ry rz
   end
   begin
      id 10
      name LeftArm
      direction 1.000000 0.000000 0.000000
      length 10.955525
      axis 0.0 0.0 -90.0 xyz
      dof rx ry rz
   end
   begin
      id 11
      name LeftForeArm
      direction 1.000000 0.000000 0.000000
      length 8.193716
      axis 0.0 0.0 -90.0 xyz
      dof ry rz rx
   end
   begin
      id 12
      name LeftHand
      direction 0.000000 0.000000 0.000000
      length 0.000000
      axis 0.0 0.0 -90.0 xyz
      dof rx ry rz
   end
   begin
      id 13
      name LeftHand_dum1
      direction 0.000000 0.000000 0.000000
      length 0.000000
      axis 0.0 0.0 -90.0 xyz
   end
   begin
      id 14
      name LeftHand_dum2
      direction 1.000000 0.000000 0.000000
      length 3.937000
      axis 0.0 0.0 -90.0 xyz
   end
   begin
      id 15
      name LeftHandThumb1
      direction 0.000000 0.000000 1.000000
      length 3.937000
      axis 0.0 0.0 -90.0 xyz
      dof rx rz ry
   end
   begin
      id 16
      name RightShoulder
      direction -1.000000 0.000000 0.000000
      length 7.058872
      axis 0.0 0.0 90.0 xyz
      dof rx ry rz
   end
   begin
      id 17
      name RightArm
      direction -1.000000 0.000000 0.000000
      length 10.955525
      axis 0.0 0.0 90.0 xyz
      dof rx ry rz
   end
   begin
      id 18
      name RightForeArm
      direction -1.000000 0.000000 0.000000
      length 8.193716
      axis 0.0 0.0 90.0 xyz
      dof ry rz rx
   end
   begin
      id 19
      name RightHand
      direction 0.000000 0.000000 0.000000
      length 0.000000
      axis 0.0 0.0 90.0 xyz
      dof rx ry rz
   end
   begin
      id 20
      name RightHand_dum1
      direction 0.000000 0.000000 0.000000
      length 0.000000
      axis 0.0 0.0 90.0 xyz
   end
   begin
      id 21
      name RightHand_dum2
      direction -1.000000 0.000000 0.000000
      length 3.937000
      axis 0.0 0.0 90.0 xyz
   end
   begin
      id 22
      name RightHandThumb1
      direction 0.000000 0.000000 1.000000
      length 3.937000
      axis 0.0 0.0 90.0 xyz
      dof rx rz ry
   end
   begin
      id 23
      name LeftUpLeg
      direction 0.000000 -1.000000 0.000000
      length 17.323638
      axis 0.0 0.0 0.0 xyz
      dof rx ry rz
   end
   begin
      id 24
      name LeftLeg
      direction 0.000000 -1.000000 0.000000
      length 16.270368
      axis 0.0 0.0 0.0 xyz
      dof rx ry rz
   end
   begin
      id 25
      name LeftFoot
      direction 0.000000 -0.258819 0.965926
      length 4.922846
      axis 15.0 0.0 0.0 xyz
      dof rx ry rz
   end
   begin
      id 26
      name LeftToeBase
      direction 0.000000 0.000000 1.000000
      length 2.952750
      axis 0.0 0.0 0.0 xyz
      dof rx ry rz
   end
   begin
      id 27
      name RightUpLeg
      direction 0.000000 -1.000000 0.000000
      length 17.323638
      axis 0.0 0.0 0.0 xyz
      dof rx ry rz
   end
   begin
      id 28
      name RightLeg
      direction 0.000000 -1.000000 0.000000
      length 16.270368
      axis 0.0 0.0 0.0 xyz
      dof rx ry rz
   end
   begin
      id 29
      name RightFoot
      direction 0.000000 -0.258819 0.965926
      length 4.922846
      axis 15.0 0.0 0.0 xyz
      dof rx ry rz
   end
   begin
      id 30
      name RightToeBase
      direction 0.000000 0.000000 1.000000
      length 2.952750
      axis 0.0 0.0 0.0 xyz
      dof rx ry rz
   end
:hierarchy
   begin
      root Spine_dum LeftUpLeg_dum RightUpLeg_dum
      Spine_dum Spine
      LeftUpLeg_dum LeftUpLeg
      RightUpLeg_dum RightUpLeg
      Spine Spine_dum1 Spine_dum2 Spine_dum3
      Spine_dum1 Head
      Spine_dum2 LeftShoulder
      Spine_dum3 RightShoulder
      LeftShoulder LeftArm
      LeftArm LeftForeArm
      LeftForeArm LeftHand
      LeftHand LeftHand_dum1 LeftHand_dum2
      LeftHand_dum1 LeftHandThumb1
      RightShoulder RightArm
      RightArm RightForeArm
      RightForeArm RightHand
      RightHand RightHand_dum1 RightHand_dum2
      RightHand_dum1 RightHandThumb1
      LeftUpLeg LeftLeg
      LeftLeg LeftFoot
      LeftFoot LeftToeBase
      RightUpLeg RightLeg
      RightLeg RightFoot
      RightFoot RightToeBase
   end

# File created by Blade
# Date/Time:  Fri Jan 16 17:19:08 2015
# Frame Rate: 120.000 fps
#------------------------------------------------------
:FULLY-SPECIFIED
:DEGREES
2449
root -5.213813 35.171368 -9.224195 -0.196143 -6.084941 -6.430578
Spine -5.034471 -3.218314 7.984635
Head 8.556205 -5.119447 -8.343147
LeftShoulder -20.307026 13.513510 -15.101110
LeftArm 19.635896 -9.339786 -72.731637
LeftForeArm 14.659762 -0.000000 9.974318
LeftHand 0.234717 -0.000000 -5.316806
LeftHandThumb1 -26.253704 0.000000 33.147579
RightShoulder -8.089487 12.726066 -11.500600
RightArm -44.463278 63.786578 3.491139
RightForeArm 57.955349 -0.000000 27.055835
RightHand 19.347746 -0.000000 -2.726329
RightHandThumb1 -24.326973 -0.000000 -32.862282
LeftUpLeg 11.735549 14.141426 7.036547
LeftLeg -9.272382 -0.000000 0.000000
LeftFoot -16.970798 28.947887 -7.996122
LeftToeBase 23.018683 -0.000000 -0.000000
RightUpLeg 8.107998 -3.793018 4.326088
RightLeg -4.894292 -0.000000 0.000000
RightFoot -4.876702 -27.963051 4.450960
RightToeBase 13.571156 -0.000000 -0.000000
2450
root -5.217136 35.171839 -9.226791 -0.195519 -6.072489 -6.434579
Spine -5.041248 -3.225364 7.965130
Head 8.583496 -5.128464 -8.275560
LeftShoulder -20.290210 13.504150 -15.075583
LeftArm 19.606862 -9.325886 -72.750660
LeftForeArm 14.646021 -0.000000 9.976682
LeftHand 0.227058 -0.000000 -5.324084
LeftHandThumb1 -26.253704 0.000000 33.147579
RightShoulder -8.083599 12.749261 -11.518931
RightArm -44.069026 63.704776 3.949154
RightForeArm 58.241582 -0.000000 25.572098
RightHand 19.319942 -0.000000 -3.106342
RightHandThumb1 -24.326973 -0.000000 -32.862282
LeftUpLeg 11.724405 14.117975 7.042768
LeftLeg -9.265013 -0.000000 0.000000
LeftFoot -16.973917 28.956697 -8.004405
LeftToeBase 23.009639 -0.000000 -0.000000
RightUpLeg 8.098962 -3.794274 4.339269
RightLeg -4.884763 -0.000000 0.000000
RightFoot -4.881868 -27.980416 4.460856
RightToeBase 13.579632 -0.000000 -0.000000
2451
root -5.221414 35.172026 -9.227866 -0.203435 -6.053285 -6.439326
Spine -5.037557 -3.252651 7.936778
Head 8.599642 -5.125684 -8.187287
LeftShoulder -20.298092 13.503977 -15.040960
LeftArm 19.599353 -9.295309 -72.781189
LeftForeArm 14.640079 0.000000 9.955442
LeftHand 0.254238 0.000000 -5.333213
LeftHandThumb1 -26.253704 0.000000 33.147579
RightShoulder -8.051584 12.818675 -11.563463
RightArm -43.767767 63.472417 4.426552
RightForeArm 59.060595 0.000000 24.145476
RightHand 19.242600 -0.000000 -2.815109
RightHandThumb1 -24.326973 -0.000000 -32.862282
LeftUpLeg 11.724413 14.079619 7.058724
LeftLeg -9.250660 -0.000000 0.000000
LeftFoot -16.930699 28.957977 -7.908113
LeftToeBase 23.001306 -0.000000 -0.000000
RightUpLeg 8.102921 -3.818203 4.349744
RightLeg -4.874808 -0.000000 0.000000
RightFoot -4.891741 -27.975788 4.467597
RightToeBase 13.565302 -0.000000 -0.000000
2452
root -5.224032 35.172434 -9.229039 -0.215214 -6.053808 -6.444675
Spine -5.026821 -3.248260 7.922030
Head 8.624662 -5.131252 -8.131784
LeftShoulder -20.289891 13.481729 -15.009976
LeftArm 19.564652 -9.247726 -72.801247
LeftForeArm 14.634817 -0.000000 9.931773
LeftHand 0.262148 -0.000000 -5.340825
LeftHandThumb1 -26.253704 0.000000 33.147579
RightShoulder -8.052171 12.883913 -11.654541
RightArm -43.436260 63.247142 5.063893
RightForeArm 59.452537 -0.000000 23.026267
RightHand 19.228086 -0.000000 -2.834224
RightHandThumb1 -24.326973 -0.000000 -32.862282
LeftUpLeg 11.736580 14.079648 7.064945
LeftLeg -9.263027 -0.000000 0.000000
LeftFoot -16.968374 28.978854 -7.995643
LeftToeBase 23.022973 -0.000000 -0.000000
RightUpLeg 8.108546 -3.813319 4.358689
RightLeg -4.862756 -0.000000 0.000000
RightFoot -4.892007 -27.976054 4.457865
RightToeBase 13.556816 -0.000000 -0.000000
2453
root -5.227922 35.172822 -9.230690 -0.219567 -6.049489 -6.458073
Spine -5.023372 -3.246700 7.915378
Head 8.641821 -5.128085 -8.070618
LeftShoulder -20.294530 13.494782 -14.988528
LeftArm 19.568357 -9.227297 -72.843967
LeftForeArm 14.682824 0.000000 9.917589
LeftHand 0.232082 -0.000000 -5.399844
LeftHandThumb1 -26.253704 0.000000 33.147579
RightShoulder -8.032381 12.934372 -11.709763
RightArm -43.090936 63.047575 5.606568
RightForeArm 59.831198 0.000000 21.764686
RightHand 19.233087 -0.000000 -3.078569
RightHandThumb1 -24.326973 -0.000000 -32.862282
LeftUpLeg 11.736471 14.063624 7.084568
LeftLeg -9.257412 -0.000000 0.000000
LeftFoot -16.971299 28.993721 -7.983084
LeftToeBase 23.021289 -0.000000 -0.000000
RightUpLeg 8.110307 -3.794819 4.379061
RightLeg -4.858568 -0.000000 0.000000
RightFoot -4.888212 -27.984690 4.477080
RightToeBase 13.550678 -0.000000 -0.000000
2454
root -5.231791 35.173317 -9.232511 -0.222367 -6.046203 -6.459399
Spine -5.021808 -3.236418 7.887565
Head 8.664233 -5.124595 -7.998050
LeftShoulder -20.293307 13.496008 -14.956578
LeftArm 19.557369 -9.180196 -72.877507
LeftForeArm 14.666836 0.000000 9.895058
LeftHand 0.242285 -0.000000 -5.392689
LeftHandThumb1 -26.253704 0.000000 33.147579
RightShoulder -8.006362 13.000633 -11.745641
RightArm -42.899431 62.853022 6.004628
RightForeArm 60.246747 -0.000000 20.523128
RightHand 19.283937 -0.000000 -3.049612
RightHandThumb1 -24.326973 -0.000000 -32.862282
LeftUpLeg 11.732598 14.049232 7.096205
LeftLeg -9.242411 -0.000000 0.000000
LeftFoot -16.929662 28.982110 -7.909366
LeftToeBase 22.990446 -0.000000 -0.000000
RightUpLeg 8.102753 -3.806743 4.385660
RightLeg -4.841302 -0.000000 0.000000
RightFoot -4.901149 -27.977158 4.472678
RightToeBase 13.554301 -0.000000 -0.000000
2455
root -5.235289 35.173902 -9.233901 -0.235538 -6.043101 -6.466947
Spine -5.005311 -3.237289 7.869821
Head 8.675436 -5.113161 -7.926318
LeftShoulder -20.304646 13.479096 -14.928420
LeftArm 19.533299 -9.172337 -72.927069
LeftForeArm 14.710306 -0.000000 9.882115
LeftHand 0.167794 0.000000 -5.566573
LeftHandThumb1 -26.253704 0.000000 33.147579
RightShoulder -7.966208 13.058281 -11.774755
RightArm -42.792797 62.716484 6.336325
RightForeArm 60.399091 -0.000000 19.404879
RightHand 19.178423 0.000000 -3.120079
RightHandThumb1 -24.326973 -0.000000 -32.862282
LeftUpLeg 11.743291 14.042398 7.107727
LeftLeg -9.247744 -0.000000 0.000000
LeftFoot -16.966913 28.996377 -7.991723
LeftToeBase 23.028818 -0.000000 -0.000000
RightUpLeg 8.114197 -3.815910 4.397986
RightLeg -4.841040 -0.000000 0.000000
RightFoot -4.903357 -27.972227 4.515568
RightToeBase 13.511243 -0.000000 -0.000000
